<?xml version="1.0" standalone="no"?>
<!DOCTYPE svg PUBLIC "-//W3C//DTD SVG 20010904//EN"
 "http://www.w3.org/TR/2001/REC-SVG-20010904/DTD/svg10.dtd">
<svg version="1.0" xmlns="http://www.w3.org/2000/svg"
 width="5509.000000pt" height="2790.000000pt" viewBox="0 0 5509.000000 2790.000000"
 preserveAspectRatio="xMidYMid meet">

<g transform="translate(0.000000,2790.000000) scale(0.100000,-0.100000)"
fill="#000000" stroke="none">
<path d="M27180 23324 c-322 -23 -614 -91 -835 -193 -64 -30 -86 -44 -75 -50
8 -5 98 -43 200 -87 227 -96 653 -309 855 -428 510 -300 1022 -693 1392 -1068
l92 -93 40 -210 c335 -1769 249 -2926 -283 -3782 -519 -838 -1503 -1401 -3051
-1747 -290 -65 -658 -133 -932 -173 -106 -15 -193 -30 -193 -34 0 -8 246 -224
425 -375 725 -608 1706 -1251 2880 -1889 321 -174 1199 -614 1547 -775 l247
-115 -59 -7 c-102 -12 -574 -47 -840 -62 -1769 -104 -3564 -62 -5060 119
-2956 358 -4919 1221 -5830 2563 -43 63 -66 89 -71 80 -17 -32 -114 -336 -149
-473 -85 -322 -110 -484 -117 -745 -8 -304 23 -483 119 -675 132 -266 442
-518 963 -780 338 -171 655 -299 1110 -448 1466 -483 3394 -795 5363 -868 417
-15 1533 -6 1897 15 1386 83 2513 268 3559 586 645 196 1154 426 1581 714 273
184 573 456 755 686 78 99 260 364 260 381 0 4 66 44 148 89 405 227 811 488
915 588 178 172 286 417 343 777 22 137 30 530 15 725 -89 1169 -611 2804
-1517 4750 -142 306 -486 996 -654 1315 -187 354 -529 969 -535 963 -2 -2 12
-66 31 -143 29 -118 104 -488 104 -513 0 -5 -127 55 -282 133 -1390 695 -2748
1139 -3773 1235 -120 11 -497 20 -585 14z"/>
<path d="M43270 8940 c-158 -33 -333 -198 -444 -417 -14 -29 -26 -55 -26 -58
0 -3 44 -5 98 -5 l97 0 39 62 c55 86 155 189 218 224 47 26 62 29 133 28 109
-1 214 -38 462 -163 241 -121 335 -153 453 -155 75 -1 92 3 150 30 116 55 223
159 349 343 28 41 51 78 51 83 0 4 -44 8 -97 8 l-98 -1 -35 -51 c-93 -138
-223 -238 -310 -238 -100 0 -244 57 -504 199 -156 85 -244 112 -381 116 -60 2
-130 0 -155 -5z"/>
<path d="M34847 7819 c-107 -222 -2158 -4431 -2164 -4442 -2 -4 42 -6 98 -5
l103 3 416 850 416 850 1202 3 1201 2 425 -855 424 -855 112 0 c86 0 111 3
107 13 -14 36 -2241 4593 -2248 4601 -5 5 -46 -68 -92 -165z m633 -1411 l556
-1133 -1109 -3 c-611 -1 -1112 0 -1114 2 -2 2 245 515 549 1139 304 625 554
1134 557 1132 2 -3 254 -514 561 -1137z"/>
<path d="M51595 5709 c-610 -1255 -1116 -2294 -1123 -2310 l-12 -30 100 3 101
3 417 852 417 853 1201 0 1201 0 424 -855 423 -855 113 0 113 0 -38 78 c-21
42 -529 1082 -1128 2310 -599 1227 -1091 2232 -1094 2232 -3 0 -504 -1027
-1115 -2281z m1659 703 c307 -623 556 -1135 554 -1138 -3 -2 -504 -3 -1115 -2
l-1110 3 426 875 c234 482 484 994 554 1139 71 145 129 262 131 260 1 -2 254
-514 560 -1137z"/>
<path d="M26550 7964 c-162 -19 -218 -28 -305 -46 -239 -48 -532 -170 -745
-308 -300 -196 -603 -510 -783 -812 -162 -272 -264 -585 -298 -917 -15 -145
-6 -483 16 -611 66 -389 240 -778 485 -1085 303 -380 747 -679 1195 -805 221
-62 332 -75 640 -75 224 0 302 4 390 18 135 22 281 58 400 98 86 29 334 145
403 188 l32 21 0 820 0 820 -850 0 -850 0 0 -95 0 -95 745 0 745 0 0 -673 0
-673 -107 -46 c-327 -140 -601 -200 -913 -201 -231 0 -389 21 -591 79 -636
182 -1211 731 -1427 1364 -81 236 -112 435 -112 710 0 211 17 358 64 542 89
352 261 655 534 940 452 471 1033 699 1677 657 339 -23 698 -140 989 -323 48
-31 90 -56 92 -56 2 0 4 54 4 119 l0 119 -152 75 c-243 120 -468 193 -718 232
-100 16 -480 29 -560 19z"/>
<path d="M42080 5661 l0 -2291 90 0 90 0 2 1994 3 1994 1649 -2029 c907 -1116
1651 -2029 1653 -2029 2 0 3 1031 3 2290 l0 2290 -90 0 -90 0 -2 -1994 -3
-1993 -1465 1799 c-806 990 -1549 1903 -1652 2030 l-188 230 0 -2291z"/>
<path d="M140 7790 l0 -90 990 0 c545 0 990 -2 990 -5 0 -6 -1942 -4250 -1966
-4297 l-15 -28 1141 0 1140 0 0 90 0 90 -981 0 c-929 0 -980 1 -975 18 3 9
447 978 987 2152 539 1174 983 2141 986 2148 4 9 -229 12 -1146 12 l-1151 0 0
-90z"/>
<path d="M7240 5625 l0 -2255 105 0 105 0 0 2255 0 2255 -105 0 -105 0 0
-2255z"/>
<path d="M12580 5626 l0 -2256 100 0 100 0 2 704 3 704 670 -703 670 -704 140
0 139 -1 -40 43 c-23 23 -370 389 -771 813 l-731 771 102 6 c300 17 574 140
846 379 260 229 415 487 477 796 22 109 24 391 4 502 -51 287 -178 519 -410
750 -153 152 -267 235 -424 310 -217 103 -345 130 -649 137 l-228 6 0 -2257z
m465 2052 c427 -64 857 -436 1001 -864 96 -288 78 -620 -50 -890 -150 -317
-442 -580 -756 -683 -107 -35 -198 -50 -332 -57 l-128 -7 0 1262 0 1263 98 -7
c53 -3 129 -11 167 -17z"/>
<path d="M19260 5625 l0 -2255 100 0 100 0 0 2255 0 2255 -100 0 -100 0 0
-2255z"/>
<path d="M0 2645 l0 -75 27500 0 27500 0 0 75 0 75 -27500 0 -27500 0 0 -75z"/>
<path d="M10265 1786 c-325 -64 -555 -296 -630 -636 -25 -114 -31 -345 -11
-457 51 -296 210 -514 458 -627 106 -49 195 -66 343 -66 161 0 255 19 370 75
244 118 389 328 441 636 25 150 16 381 -20 504 -84 289 -255 470 -521 555 -90
28 -322 37 -430 16z m343 -161 c213 -50 372 -216 432 -451 61 -238 36 -522
-63 -709 -45 -85 -165 -204 -247 -244 -251 -122 -551 -82 -729 98 -152 154
-219 349 -208 611 9 237 72 396 212 535 85 86 161 131 266 159 72 19 256 20
337 1z"/>
<path d="M25720 1781 c-339 -72 -576 -323 -652 -691 -17 -79 -19 -122 -15
-260 4 -141 8 -178 31 -253 83 -275 251 -454 511 -543 70 -24 99 -28 237 -32
179 -5 290 10 418 57 l75 27 3 87 c1 48 1 87 -1 87 -3 0 -33 -13 -68 -30 -205
-96 -483 -103 -662 -17 -241 115 -369 349 -369 672 1 246 78 444 228 586 122
114 237 159 430 166 174 7 251 -8 432 -84 9 -4 12 18 12 90 l0 95 -77 20 c-43
12 -107 26 -143 32 -101 16 -293 11 -390 -9z"/>
<path d="M30697 1790 c-398 -72 -661 -372 -708 -807 -46 -427 146 -790 491
-930 96 -38 184 -53 326 -53 152 0 270 18 381 58 l78 28 3 87 c1 48 0 87 -3
87 -3 0 -27 -11 -53 -24 -70 -36 -166 -62 -272 -76 -374 -49 -655 136 -752
495 -27 103 -30 323 -6 432 60 262 224 453 453 526 61 19 92 22 235 22 164 0
166 -1 265 -36 55 -20 108 -40 118 -44 15 -6 17 1 17 84 0 105 7 98 -120 131
-66 17 -122 22 -245 25 -88 2 -182 0 -208 -5z"/>
<path d="M39608 1790 c-215 -37 -399 -151 -517 -323 -147 -215 -199 -566 -126
-853 74 -292 260 -498 530 -584 99 -32 339 -40 452 -15 146 32 260 92 366 193
148 142 232 338 257 602 48 494 -201 889 -612 974 -81 17 -266 20 -350 6z
m382 -182 c172 -64 295 -194 354 -377 41 -126 50 -188 49 -341 0 -122 -4 -160
-26 -242 -66 -252 -216 -414 -437 -474 -80 -22 -262 -25 -340 -5 -76 19 -167
64 -229 115 -224 184 -310 562 -204 901 67 217 223 376 428 437 92 27 316 20
405 -14z"/>
<path d="M54505 1784 c-269 -56 -432 -266 -396 -510 27 -179 103 -256 460
-458 182 -103 252 -155 290 -210 75 -111 69 -251 -15 -345 -54 -60 -117 -88
-230 -103 -145 -20 -290 10 -441 92 l-73 39 0 -100 0 -100 45 -20 c93 -41 196
-61 340 -66 165 -6 252 9 360 61 174 83 254 224 243 427 -7 120 -37 180 -137
279 -77 75 -136 114 -401 261 -231 129 -303 244 -254 408 21 71 89 139 170
172 53 21 74 24 204 24 148 0 189 -9 333 -70 15 -6 17 1 17 87 l0 94 -52 17
c-126 39 -331 48 -463 21z"/>
<path d="M120 895 l0 -875 85 0 85 0 0 339 0 339 188 5 c204 5 258 15 371 69
84 40 195 149 234 230 37 77 57 168 57 259 0 214 -86 366 -253 449 -106 52
-170 60 -484 60 l-283 0 0 -875z m585 702 c113 -31 181 -85 224 -177 23 -49
26 -67 26 -170 0 -110 -1 -118 -33 -182 -75 -153 -202 -207 -484 -208 l-148 0
0 382 0 381 183 -6 c103 -4 204 -12 232 -20z"/>
<path d="M4880 895 l0 -875 85 0 85 0 0 380 0 380 125 0 c152 0 209 -18 271
-82 61 -64 75 -87 235 -392 l148 -281 101 -3 c55 -1 100 0 100 3 0 4 -79 152
-176 330 -181 333 -242 424 -308 461 l-38 21 35 7 c62 12 170 73 225 128 32
32 68 82 89 126 34 67 37 82 41 181 3 82 0 121 -13 166 -33 114 -113 208 -225
265 -106 54 -154 60 -482 60 l-298 0 0 -875z m634 695 c55 -17 79 -32 121 -74
69 -69 89 -127 83 -245 -5 -100 -27 -151 -92 -219 -86 -91 -160 -112 -398
-112 l-178 0 0 341 0 342 198 -6 c165 -4 208 -8 266 -27z"/>
<path d="M14990 894 l0 -877 298 6 c242 5 314 10 389 26 231 49 425 175 537
348 101 156 139 300 140 523 1 165 -10 245 -51 365 -69 204 -235 363 -453 434
-133 43 -224 51 -551 51 l-309 0 0 -876z m550 716 c343 -30 535 -174 612 -457
30 -113 30 -354 0 -468 -78 -288 -282 -456 -602 -495 -46 -5 -153 -10 -237
-10 l-153 0 0 720 0 720 133 0 c72 0 184 -5 247 -10z"/>
<path d="M20070 1208 c0 -310 5 -603 10 -653 26 -235 128 -413 279 -489 178
-91 486 -90 671 2 125 61 226 201 272 375 21 79 22 103 25 705 l4 622 -86 0
-85 0 0 -582 c-1 -643 -4 -685 -60 -807 -78 -170 -258 -254 -474 -223 -152 22
-256 93 -316 216 -61 124 -63 142 -67 799 l-5 597 -84 0 -84 0 0 -562z"/>
<path d="M35020 895 l0 -875 85 0 85 0 0 875 0 875 -85 0 -85 0 0 -875z"/>
<path d="M44310 895 l0 -875 85 0 85 0 0 743 c1 586 3 738 13 725 7 -10 237
-344 512 -743 l500 -725 88 0 87 0 0 875 0 875 -85 0 -85 0 0 -732 c-1 -579
-3 -729 -13 -715 -7 9 -232 339 -502 732 l-490 715 -97 0 -98 0 0 -875z"/>
<path d="M49520 895 l0 -875 445 0 445 0 0 80 0 80 -360 0 -360 0 0 325 0 325
315 0 315 0 0 80 0 80 -315 0 -315 0 0 315 0 315 345 0 345 0 0 75 0 75 -430
0 -430 0 0 -875z"/>
</g>
</svg>
